<?xml version="1.0" encoding="UTF-8"?>
<svg style="fill:white" id="Layer_1" data-name="Layer 1" xmlns="http://www.w3.org/2000/svg" viewBox="0 0 96.28 21.81">
  <path d="m0,0h7.84c4.68,0,8.7,1.71,8.7,7.12s-4.08,7.51-8.57,7.51h-2.31v6.79H0V0Zm7.71,10.15c2.24,0,3.29-1.12,3.29-3.03s-1.25-2.64-3.43-2.64h-1.91v5.67h2.04Z"/>
  <path d="m17.92,16.74c0-3.43,2.64-5.34,8.96-6-.13-1.19-.86-1.71-2.31-1.71-1.19,0-2.44.46-4.15,1.38l-1.98-3.69c2.31-1.38,4.68-2.17,7.25-2.17,4.28,0,6.85,2.31,6.85,7.71v9.16h-4.61l-.4-1.58h-.13c-1.32,1.19-2.77,1.98-4.55,1.98-3.1,0-4.94-2.37-4.94-5.07Zm8.96-.4v-2.24c-2.7.4-3.56,1.25-3.56,2.17,0,.76.53,1.19,1.52,1.19.92,0,1.45-.46,2.04-1.12Z"/>
  <path d="m36.24,4.94h4.61l.4,2.83h.13c1.22-2.24,3.06-3.23,4.68-3.23,1.02,0,1.58.13,2.04.33l-.92,4.88c-.59-.13-1.12-.26-1.84-.26-1.19,0-2.64.73-3.43,2.77v9.16h-5.67V4.94Z"/>
  <path d="m48.83,13.18c0-5.47,3.95-8.63,8.17-8.63s8.17,3.16,8.17,8.63-3.95,8.63-8.17,8.63-8.17-3.16-8.17-8.63Zm10.54,0c0-2.5-.66-4.08-2.37-4.08s-2.37,1.58-2.37,4.08.66,4.08,2.37,4.08,2.37-1.58,2.37-4.08Z"/>
  <path d="m67.28,13.18c0-5.47,3.95-8.63,8.17-8.63s8.17,3.16,8.17,8.63-3.95,8.63-8.17,8.63-8.17-3.16-8.17-8.63Zm10.54,0c0-2.5-.66-4.08-2.37-4.08s-2.37,1.58-2.37,4.08.66,4.08,2.37,4.08,2.37-1.58,2.37-4.08Z"/>
  <path d="m86.33,15.09v-5.73h-2.17v-4.22l2.5-.2.66-4.28h4.68v4.28h3.76v4.41h-3.76v5.63c0,1.81.92,2.4,1.98,2.4.53,0,1.05-.13,1.45-.26l.86,4.08c-.86.26-2.08.59-3.89.59-4.28,0-6.06-2.7-6.06-6.72Z"/>
</svg>