<?xml version="1.0" encoding="utf-8"?>
<!-- Generator: Adobe Illustrator 27.2.0, SVG Export Plug-In . SVG Version: 6.00 Build 0)  -->
<svg version="1.1" id="Layer_1" xmlns="http://www.w3.org/2000/svg" xmlns:xlink="http://www.w3.org/1999/xlink" x="0px" y="0px"
	 viewBox="0 0 100 100" style="enable-background:new 0 0 100 100;" xml:space="preserve">
<style type="text/css">
	.st0{fill:#435920;}
	.st1{fill:#8ABE52;}
	.st2{fill:#76964D;}
	.st3{fill:#A0D468;}
</style>
<g>
	<path class="st0" d="M16.8,52.2c0.3,0.3,8.7,7.9,20.3,6.5c0,0,0,0,0,0c0.2,0,0.5-0.1,0.7-0.2l10.5-4.4c1.2-0.5,1.9-1.8,1.7-3.2
		L47.8,34c-0.2-1.6-1.5-2.7-2.9-2.7L26,31.8c-1,0-1.9,0.6-2.4,1.6l-7.5,15C15.5,49.6,15.8,51.2,16.8,52.2z"/>
	<path class="st1" d="M30.9,93.7c1,7.8,5,14.7,11.7,20.5c5.2,4.5,12.1,8.3,20.5,11.4c11.8,4.4,23,6,26.7,6.4l13.8,15.8
		c0.7,0.8,1.7,1.2,2.7,1l6.1-0.8c0.9-0.1,1.7-0.6,2.2-1.3c0.5-0.7,0.6-1.7,0.4-2.5c-0.1-0.4-10.5-37.6-23.5-65.6
		c-5.3-11.3-9.8-15.8-12.2-17.5l-3.4-26c-0.1-1.1-0.8-2-1.8-2.4c-1-0.4-2.1-0.3-3,0.3L39.6,54.8c-0.4,0.3-0.7,0.6-0.9,1
		C38.3,56.6,28.4,74.6,30.9,93.7z"/>
	<path class="st2" d="M10,53.1c0.1,1,0.7,1.8,1.6,2.3c0.6,0.3,1.2,0.4,1.9,0.3c0.3,0,0.6-0.1,0.9-0.3l17.5-8.5
		c0.9-0.4,1.5-1.2,1.7-2.2L37.3,26c0.2-1-0.1-2-0.8-2.7c-0.7-0.7-1.6-1.1-2.6-1l-0.1,0c-0.7,0.1-7.4,1.1-13.5,5.3
		C14.6,31.6,8.2,39.2,10,53.1z"/>
	<path class="st3" d="M27.1,41.5C28.9,55,41.2,64.4,54.7,62.7c13.4-1.8,22.9-14.1,21.2-27.6S61.7,12.2,48.2,14
		C34.8,15.7,25.3,28.1,27.1,41.5z M51.1,35.4c1.7-0.2,3.2,1,3.4,2.6s-1,3.2-2.6,3.4s-3.2-1-3.4-2.6C48.2,37.2,49.4,35.6,51.1,35.4z"
		/>
	<path class="st1" d="M91.9,134.4l11.7,13.4c0.7,0.8,1.7,1.2,2.7,1l6.1-0.8c0.9-0.1,1.7-0.6,2.2-1.3c0.5-0.7,0.6-1.7,0.4-2.5
		c0-0.1-1.2-4.4-3.3-11L91.9,134.4z"/>
	<path class="st2" d="M61.4,120.7c6.8,5.9,14.7,10.6,22.8,13.5c9.1,3.3,18.1,4.3,26.9,3.2c1.7-0.2,2.9-1.8,2.6-3.4
		c-0.1-0.4-1.3-9.9-4.3-21.5c-4.1-15.9-9.2-27.6-15.3-34.9c-5-6-10.2-10.3-15.7-12.9c-5-2.4-10.1-3.3-15.1-2.6
		c-5.9,0.8-11.3,3.7-15.2,8.3c-3.8,4.4-5.9,9.9-5.9,15.4C42.3,97.2,49.5,110.3,61.4,120.7z"/>
</g>
</svg>
